# xmcd
#
# Track frame offsets:
#	150
#	10449
#	23975
#	41717
#	59631
#	73225
#	89625
#	101590
#	115374
#	130950
#	142585
#	155207
#	167075
#	177330
#	194177
#	205570
#	219601
#	239028
#
# Disc length: 3423 seconds
#
# Revision: 1
# Processed by: cddbd v1.5.2PL0 Copyright (c) Steve Scherf et al.
# Submitted via: EasyCDDAExtractor 16.1.0.1
#
DISCID=1d0d5d12
DTITLE=Various Artist - Gentle on My Mind - Soothing Sounds of Country (Disk 3
DTITLE=of 4)
DYEAR=1900
DGENRE=Country
TTITLE0=The Statler Brother - Hello Mary Lou
TTITLE1=Tompall Glaser and the Glaser Brothers - Lovin' Her Was Easier
TTITLE2=Marie Osmond with Dan Seals - Meet Me In Montana
TTITLE3=The Judds - Love Is Alive
TTITLE4=Johnny Cash and June Carter - If I Were A Carpenter
TTITLE5=The Oakridge Boys - I'll Be True To You
TTITLE6=Conway Twitty and Loretta Lynn - After The Fire Is Gone
TTITLE7=George Jones and Tammy Wynette - Golden Ring
TTITLE8=Dolly Parton duet with Ricky Van Shelton - Rockin' Years
TTITLE9=Eddie Arnold - Bouquet Of Roses
TTITLE10=Patsy Cline - You Made Me Love You
TTITLE11=Jim Reeves - Mona Lisa
TTITLE12=Tom T. Hall - Love Letters In The Sand
TTITLE13=Merle Haggard - Today I Started Loving You Again
TTITLE14=Sonny James - Young Love
TTITLE15=The Gatlin Brothers - The Great Pretender
TTITLE16=Kenny Rogers - I Only Have Eyes For You 
TTITLE17=Don Williams - I f You Could Read My Mind
EXTD=
EXTT0=
EXTT1=
EXTT2=
EXTT3=
EXTT4=
EXTT5=
EXTT6=
EXTT7=
EXTT8=
EXTT9=
EXTT10=
EXTT11=
EXTT12=
EXTT13=
EXTT14=
EXTT15=
EXTT16=
EXTT17=
PLAYORDER=
